# xmcd CD database file
#
# Track frame offsets:
#	183
#	4133
#	22620
#	51245
#	73458
#	101208
#	106470
#	146283
#	162683
#	188383
#
# Disc length: 2686 seconds
#
# Revision: 8
# Processed by: cddbd v1.5.2PL0 Copyright (c) Steve Scherf et al.
# Submitted via: CDex 1.51
#
DISCID=840a7c0a
DTITLE=Buddy Guy and Junior Wells - Messin' With The Kids
DYEAR=1974
DGENRE=Blues
TTITLE0=Introduction
TTITLE1=Ah'w Baby - Everything Gonna Be Alright
TTITLE2=How Can One Woman Be So Mean?
TTITLE3=Checking On My Baby
TTITLE4=When You See The Tears From My Eyes
TTITLE5=Introduction
TTITLE6=Ten Years Ago
TTITLE7=Messing With The Kid
TTITLE8=Hoodoo Man Blues
TTITLE9=My Younger Days
EXTD=YEAR: 1974
EXTT0=
EXTT1=
EXTT2=
EXTT3=
EXTT4=
EXTT5=
EXTT6=
EXTT7=
EXTT8=
EXTT9=
PLAYORDER=
